<?xml version="1.0" standalone="no"?>
<!DOCTYPE svg PUBLIC "-//W3C//DTD SVG 20010904//EN"
 "http://www.w3.org/TR/2001/REC-SVG-20010904/DTD/svg10.dtd">
<svg version="1.0" xmlns="http://www.w3.org/2000/svg"
 width="25.000000pt" height="25.000000pt" viewBox="0 0 24.000000 24.000000"
 preserveAspectRatio="xMidYMid meet">

<g transform="translate(0.000000,24.000000) scale(0.100000,-0.100000)"
fill="#000000" stroke="none">
<path d="M0 120 l0 -120 120 0 120 0 -1 108 -2 107 -14 -80 c-20 -111 -18
-107 -50 -94 -24 9 -30 7 -42 -10 -7 -12 -17 -21 -22 -21 -22 0 -6 52 33 106
l41 59 -49 -48 c-53 -50 -65 -54 -103 -33 -24 13 -23 14 53 57 42 24 94 54
114 66 l37 22 -117 1 -118 0 0 -120z"/>
</g>
</svg>
